<?xml version="1.0" standalone="no"?>
<!DOCTYPE svg PUBLIC "-//W3C//DTD SVG 20010904//EN"
 "http://www.w3.org/TR/2001/REC-SVG-20010904/DTD/svg10.dtd">
<svg version="1.0" xmlns="http://www.w3.org/2000/svg"
 width="317.000000pt" height="317.000000pt" viewBox="0 0 317.000000 317.000000"
 preserveAspectRatio="xMidYMid meet">
<metadata>
Created by potrace 1.11, written by Peter Selinger 2001-2013
</metadata>
<g transform="translate(0.000000,317.000000) scale(0.100000,-0.100000)"
fill="#000000" stroke="none">
<path d="M0 2204 c0 -531 3 -963 8 -961 4 3 630 352 1392 777 762 425 1466
818 1564 873 168 93 180 99 193 81 11 -15 13 -3 13 89 l0 107 -1585 0 -1585 0
0 -966z"/>
<path d="M2252 2404 c-51 -22 -130 -107 -160 -172 -34 -74 -40 -163 -15 -212
24 -47 67 -69 165 -86 114 -20 143 -30 158 -59 11 -21 11 -29 0 -49 -18 -35
-61 -50 -127 -43 l-55 6 7 -82 c3 -45 11 -86 16 -92 5 -5 38 -11 73 -13 56 -4
71 -1 116 24 92 50 140 132 140 239 0 72 -21 128 -69 178 -38 42 -72 56 -158
67 -45 6 -84 17 -95 27 -23 21 -23 64 0 93 23 29 55 20 74 -20 l14 -29 58 58
59 59 -23 46 c-34 72 -100 94 -178 60z"/>
<path d="M1683 2091 c-17 -5 -49 -18 -70 -31 -63 -36 -173 -123 -173 -136 0
-6 23 -72 51 -145 71 -187 134 -372 160 -471 12 -45 25 -86 28 -91 15 -16 119
50 186 118 84 84 118 147 123 231 6 97 -44 175 -124 190 -19 3 -34 7 -34 9 0
2 9 22 20 46 27 61 26 142 -2 199 -37 71 -93 99 -165 81z m53 -195 c9 -23 -44
-106 -67 -106 -4 0 -14 21 -23 47 -15 45 -15 49 1 60 23 18 82 17 89 -1z m100
-251 c21 -32 8 -68 -41 -115 l-33 -32 -20 54 c-34 92 -34 96 -15 107 10 6 35
11 55 11 29 0 41 -6 54 -25z"/>
<path d="M2649 1957 c-49 -33 -64 -70 -50 -119 13 -41 58 -78 97 -78 33 0 87
42 108 83 16 34 17 42 4 75 -24 63 -97 81 -159 39z"/>
<path d="M2975 1804 c-2216 -1237 -2898 -1615 -2906 -1607 -4 4 -22 33 -38 63
l-31 55 0 -157 0 -158 1585 0 1585 0 0 955 c0 525 -1 955 -3 955 -1 0 -88 -48
-192 -106z"/>
<path d="M1079 1766 c-111 -39 -168 -145 -177 -327 -13 -285 112 -524 265
-506 77 8 142 75 185 193 19 50 22 79 22 184 0 107 -4 136 -27 205 -63 190
-166 287 -268 251z m115 -263 c51 -78 76 -246 46 -305 -66 -127 -151 -71 -181
121 -25 165 66 289 135 184z"/>
<path d="M2109 1651 c-70 -22 -106 -69 -95 -125 27 -132 219 -101 219 37 0 64
-61 107 -124 88z"/>
<path d="M715 1564 c-32 -22 -49 -41 -47 -52 2 -9 25 -87 53 -174 27 -86 49
-159 49 -164 0 -4 -52 58 -116 139 l-116 146 -69 -46 c-38 -25 -69 -50 -69
-55 0 -6 22 -69 49 -141 26 -73 81 -231 121 -352 40 -121 75 -223 79 -227 3
-4 32 17 64 45 l58 52 -56 164 c-31 89 -55 165 -53 167 2 1 42 -51 88 -118 47
-66 94 -131 105 -144 l20 -23 64 57 64 58 -61 174 c-33 96 -83 252 -112 345
-29 94 -55 173 -59 177 -4 4 -29 -8 -56 -28z"/>
</g>
</svg>
